<svg xmlns="http://www.w3.org/2000/svg" width="11.202" height="16.003" viewBox="0 0 11.202 16.003">
    <path fill="#f8f8ff" d="M8.2 16.4H13V18H8.2zm6.326-5.031A5.356 5.356 0 0 0 16.2 7.6 5.6 5.6 0 0 0 5 7.6a5.335 5.335 0 0 0 1.681 3.785c.286.334.583.681.867 1.079A6.827 6.827 0 0 1 8.021 14H7.4v1.6h6.4V14h-.619a6.95 6.95 0 0 1 .475-1.54c.283-.4.582-.75.871-1.088zm-2.18.17a8.421 8.421 0 0 0-.8 2.461H9.661a8.291 8.291 0 0 0-.809-2.465c-.326-.458-.661-.849-.957-1.194A3.788 3.788 0 0 1 6.6 7.6a4 4 0 0 1 8 0 3.805 3.805 0 0 1-1.292 2.731c-.297.352-.635.748-.961 1.211z" transform="translate(-5 -2)"/>
</svg>
