<svg xmlns="http://www.w3.org/2000/svg" width="16" height="16" viewBox="0 0 16 16">
    <path fill="#37474f" d="M3.889 11.889h5.333a.889.889 0 0 0 .889-.889V3.889A.889.889 0 0 0 9.222 3H3.889A.889.889 0 0 0 3 3.889V11a.889.889 0 0 0 .889.889zM3 18.111a.889.889 0 0 0 .889.889h5.333a.889.889 0 0 0 .889-.889v-3.555a.889.889 0 0 0-.889-.889H3.889a.889.889 0 0 0-.889.889zm8.889 0a.888.888 0 0 0 .889.889h5.333a.888.888 0 0 0 .889-.889v-6.222a.888.888 0 0 0-.889-.889h-5.333a.888.888 0 0 0-.889.889zm.889-8.889h5.333A.888.888 0 0 0 19 8.333V3.889A.888.888 0 0 0 18.111 3h-5.333a.888.888 0 0 0-.889.889v4.444a.888.888 0 0 0 .889.889z" transform="translate(-3 -3)"/>
</svg>
