<svg xmlns="http://www.w3.org/2000/svg" width="18.824" height="16" viewBox="0 0 18.824 16">
    <path fill="#f8f8ff" d="M17.32 7.706a1.882 1.882 0 1 0 0-1.882h-2.144V3.941A.94.94 0 0 0 14.235 3H8.588a.941.941 0 0 0-.941.941v1.883H5.5a1.882 1.882 0 1 0 0 1.882h2.147v.347a7.023 7.023 0 0 0-3.679 5.3H2.941a.941.941 0 0 0-.941.941v3.765a.941.941 0 0 0 .941.941h3.765a.941.941 0 0 0 .941-.941v-3.765a.941.941 0 0 0-.941-.941H5.88a5.277 5.277 0 0 1 1.962-3.217.926.926 0 0 0 .745.393h5.647a.923.923 0 0 0 .745-.394 5.244 5.244 0 0 1 1.966 3.218h-.829a.94.94 0 0 0-.941.941v3.765a.94.94 0 0 0 .941.941h3.765a.94.94 0 0 0 .941-.941v-3.765a.94.94 0 0 0-.941-.941h-1.026a7.025 7.025 0 0 0-3.678-5.3v-.347zM5.765 17.118H3.882v-1.883h1.883zm13.176 0h-1.882v-1.883h1.882zm-5.647-8.471H9.529V4.882h3.765z" transform="translate(-2 -3)"/>
</svg>
